<svg xmlns="http://www.w3.org/2000/svg" width="1600" height="1300" viewBox="0 0 1600 1300" role="img">
<defs>
<linearGradient id="flowPanel" x1="0" y1="0" x2="0" y2="1"><stop offset="0" stop-color="#FFFDF9"/><stop offset="1" stop-color="#EEE9E1"/></linearGradient>
<marker id="arrow" viewBox="0 0 10 10" refX="9" refY="5" markerWidth="8" markerHeight="8" orient="auto-start-reverse"><path d="M 0 0 L 10 5 L 0 10 z" fill="#B43A3A"/></marker>
<filter id="shadow" x="-20%" y="-20%" width="140%" height="140%"><feDropShadow dx="0" dy="6" stdDeviation="8" flood-color="#333" flood-opacity=".16"/></filter>
</defs>
<rect width="1600" height="1300" fill="#FFFFFF"/>
<text x="800" y="52" text-anchor="middle" font-family="Yu Gothic, Noto Sans JP, sans-serif" font-size="28" font-weight="600" fill="#222">RAMScopeロギング公開API接続</text>
<line x1="485" y1="170" x2="590" y2="170" stroke="#B43A3A" stroke-width="5" marker-end="url(#arrow)"/>
<line x1="1010" y1="170" x2="1115" y2="170" stroke="#B43A3A" stroke-width="5" marker-end="url(#arrow)"/>
<path d="M 1325.0 235 V 307 H 1325.0 V 335" fill="none" stroke="#B43A3A" stroke-width="5" marker-end="url(#arrow)"/>
<line x1="1115" y1="400" x2="1010" y2="400" stroke="#B43A3A" stroke-width="5" marker-end="url(#arrow)"/>
<line x1="590" y1="400" x2="485" y2="400" stroke="#B43A3A" stroke-width="5" marker-end="url(#arrow)"/>
<path d="M 275.0 465 V 537 H 275.0 V 565" fill="none" stroke="#B43A3A" stroke-width="5" marker-end="url(#arrow)"/>
<line x1="485" y1="630" x2="590" y2="630" stroke="#B43A3A" stroke-width="5" marker-end="url(#arrow)"/>
<line x1="1010" y1="630" x2="1115" y2="630" stroke="#B43A3A" stroke-width="5" marker-end="url(#arrow)"/>
<path d="M 1325.0 695 V 767 H 1325.0 V 795" fill="none" stroke="#B43A3A" stroke-width="5" marker-end="url(#arrow)"/>
<line x1="1115" y1="860" x2="1010" y2="860" stroke="#B43A3A" stroke-width="5" marker-end="url(#arrow)"/>
<line x1="590" y1="860" x2="485" y2="860" stroke="#B43A3A" stroke-width="5" marker-end="url(#arrow)"/>
<path d="M 275.0 925 V 997 H 275.0 V 1025" fill="none" stroke="#B43A3A" stroke-width="5" marker-end="url(#arrow)"/>
<rect x="65" y="105" width="420" height="130" rx="24" fill="url(#flowPanel)" stroke="#3A3A3A" stroke-width="4" filter="url(#shadow)"/>
<circle cx="97" cy="170" r="11" fill="#FFF0E1" stroke="#E06B00" stroke-width="4"/>
<circle cx="453" cy="170" r="11" fill="#E8F2FC" stroke="#2B76C4" stroke-width="4"/>
<text x="275.0" y="157" text-anchor="middle" font-family="Yu Gothic, Noto Sans JP, sans-serif" font-size="20" font-weight="600" fill="#222">RAMScope_Connect.vi</text>
<text x="275.0" y="193" text-anchor="middle" font-family="Yu Gothic, Noto Sans JP, sans-serif" font-size="16" fill="#555">UnitNum / kind</text>
<rect x="590" y="105" width="420" height="130" rx="24" fill="url(#flowPanel)" stroke="#3A3A3A" stroke-width="4" filter="url(#shadow)"/>
<circle cx="622" cy="170" r="11" fill="#FFF0E1" stroke="#E06B00" stroke-width="4"/>
<circle cx="978" cy="170" r="11" fill="#E8F2FC" stroke="#2B76C4" stroke-width="4"/>
<text x="800.0" y="157" text-anchor="middle" font-family="Yu Gothic, Noto Sans JP, sans-serif" font-size="20" font-weight="600" fill="#222">RAMScope_Init.vi</text>
<text x="800.0" y="193" text-anchor="middle" font-family="Yu Gothic, Noto Sans JP, sans-serif" font-size="16" fill="#555">Module List / MdlNo</text>
<rect x="1115" y="105" width="420" height="130" rx="24" fill="url(#flowPanel)" stroke="#3A3A3A" stroke-width="4" filter="url(#shadow)"/>
<circle cx="1147" cy="170" r="11" fill="#FFF0E1" stroke="#E06B00" stroke-width="4"/>
<circle cx="1503" cy="170" r="11" fill="#E8F2FC" stroke="#2B76C4" stroke-width="4"/>
<text x="1325.0" y="157" text-anchor="middle" font-family="Yu Gothic, Noto Sans JP, sans-serif" font-size="20" font-weight="600" fill="#222">RAMScope_Set_Cond.vi</text>
<text x="1325.0" y="193" text-anchor="middle" font-family="Yu Gothic, Noto Sans JP, sans-serif" font-size="16" fill="#555">測定条件</text>
<rect x="1115" y="335" width="420" height="130" rx="24" fill="url(#flowPanel)" stroke="#3A3A3A" stroke-width="4" filter="url(#shadow)"/>
<circle cx="1147" cy="400" r="11" fill="#FFF0E1" stroke="#E06B00" stroke-width="4"/>
<circle cx="1503" cy="400" r="11" fill="#E8F2FC" stroke="#2B76C4" stroke-width="4"/>
<text x="1325.0" y="387" text-anchor="middle" font-family="Yu Gothic, Noto Sans JP, sans-serif" font-size="20" font-weight="600" fill="#222">RAMScope_File_Log_Open.vi</text>
<text x="1325.0" y="423" text-anchor="middle" font-family="Yu Gothic, Noto Sans JP, sans-serif" font-size="16" fill="#555">File Ref</text>
<rect x="590" y="335" width="420" height="130" rx="24" fill="url(#flowPanel)" stroke="#3A3A3A" stroke-width="4" filter="url(#shadow)"/>
<circle cx="622" cy="400" r="11" fill="#FFF0E1" stroke="#E06B00" stroke-width="4"/>
<circle cx="978" cy="400" r="11" fill="#E8F2FC" stroke="#2B76C4" stroke-width="4"/>
<text x="800.0" y="387" text-anchor="middle" font-family="Yu Gothic, Noto Sans JP, sans-serif" font-size="20" font-weight="600" fill="#222">RAMScope_Log_Start.vi</text>
<text x="800.0" y="423" text-anchor="middle" font-family="Yu Gothic, Noto Sans JP, sans-serif" font-size="16" fill="#555">Started</text>
<rect x="65" y="335" width="420" height="130" rx="24" fill="url(#flowPanel)" stroke="#3A3A3A" stroke-width="4" filter="url(#shadow)"/>
<circle cx="97" cy="400" r="11" fill="#FFF0E1" stroke="#E06B00" stroke-width="4"/>
<circle cx="453" cy="400" r="11" fill="#E8F2FC" stroke="#2B76C4" stroke-width="4"/>
<text x="275.0" y="387" text-anchor="middle" font-family="Yu Gothic, Noto Sans JP, sans-serif" font-size="20" font-weight="600" fill="#222">RAMScope_Log_Stop.vi</text>
<text x="275.0" y="423" text-anchor="middle" font-family="Yu Gothic, Noto Sans JP, sans-serif" font-size="16" fill="#555">Stopped</text>
<rect x="65" y="565" width="420" height="130" rx="24" fill="url(#flowPanel)" stroke="#3A3A3A" stroke-width="4" filter="url(#shadow)"/>
<circle cx="97" cy="630" r="11" fill="#FFF0E1" stroke="#E06B00" stroke-width="4"/>
<circle cx="453" cy="630" r="11" fill="#E8F2FC" stroke="#2B76C4" stroke-width="4"/>
<text x="275.0" y="617" text-anchor="middle" font-family="Yu Gothic, Noto Sans JP, sans-serif" font-size="20" font-weight="600" fill="#222">Get Log Summary</text>
<text x="275.0" y="653" text-anchor="middle" font-family="Yu Gothic, Noto Sans JP, sans-serif" font-size="16" fill="#555">Block / Sample概要</text>
<rect x="590" y="565" width="420" height="130" rx="24" fill="url(#flowPanel)" stroke="#3A3A3A" stroke-width="4" filter="url(#shadow)"/>
<circle cx="622" cy="630" r="11" fill="#FFF0E1" stroke="#E06B00" stroke-width="4"/>
<circle cx="978" cy="630" r="11" fill="#E8F2FC" stroke="#2B76C4" stroke-width="4"/>
<text x="800.0" y="617" text-anchor="middle" font-family="Yu Gothic, Noto Sans JP, sans-serif" font-size="20" font-weight="600" fill="#222">Get Block Count</text>
<text x="800.0" y="653" text-anchor="middle" font-family="Yu Gothic, Noto Sans JP, sans-serif" font-size="16" fill="#555">Block数</text>
<rect x="1115" y="565" width="420" height="130" rx="24" fill="url(#flowPanel)" stroke="#3A3A3A" stroke-width="4" filter="url(#shadow)"/>
<circle cx="1147" cy="630" r="11" fill="#FFF0E1" stroke="#E06B00" stroke-width="4"/>
<circle cx="1503" cy="630" r="11" fill="#E8F2FC" stroke="#2B76C4" stroke-width="4"/>
<text x="1325.0" y="617" text-anchor="middle" font-family="Yu Gothic, Noto Sans JP, sans-serif" font-size="20" font-weight="600" fill="#222">Read Logging Block</text>
<text x="1325.0" y="653" text-anchor="middle" font-family="Yu Gothic, Noto Sans JP, sans-serif" font-size="16" fill="#555">Logging Data</text>
<rect x="1115" y="795" width="420" height="130" rx="24" fill="url(#flowPanel)" stroke="#3A3A3A" stroke-width="4" filter="url(#shadow)"/>
<circle cx="1147" cy="860" r="11" fill="#FFF0E1" stroke="#E06B00" stroke-width="4"/>
<circle cx="1503" cy="860" r="11" fill="#E8F2FC" stroke="#2B76C4" stroke-width="4"/>
<text x="1325.0" y="847" text-anchor="middle" font-family="Yu Gothic, Noto Sans JP, sans-serif" font-size="20" font-weight="600" fill="#222">RAMScope_File_Log_Append.vi</text>
<text x="1325.0" y="883" text-anchor="middle" font-family="Yu Gothic, Noto Sans JP, sans-serif" font-size="16" fill="#555">保存結果</text>
<rect x="590" y="795" width="420" height="130" rx="24" fill="url(#flowPanel)" stroke="#3A3A3A" stroke-width="4" filter="url(#shadow)"/>
<circle cx="622" cy="860" r="11" fill="#FFF0E1" stroke="#E06B00" stroke-width="4"/>
<circle cx="978" cy="860" r="11" fill="#E8F2FC" stroke="#2B76C4" stroke-width="4"/>
<text x="800.0" y="847" text-anchor="middle" font-family="Yu Gothic, Noto Sans JP, sans-serif" font-size="20" font-weight="600" fill="#222">RAMScope_Release.vi</text>
<text x="800.0" y="883" text-anchor="middle" font-family="Yu Gothic, Noto Sans JP, sans-serif" font-size="16" fill="#555">Released</text>
<rect x="65" y="795" width="420" height="130" rx="24" fill="url(#flowPanel)" stroke="#3A3A3A" stroke-width="4" filter="url(#shadow)"/>
<circle cx="97" cy="860" r="11" fill="#FFF0E1" stroke="#E06B00" stroke-width="4"/>
<circle cx="453" cy="860" r="11" fill="#E8F2FC" stroke="#2B76C4" stroke-width="4"/>
<text x="275.0" y="847" text-anchor="middle" font-family="Yu Gothic, Noto Sans JP, sans-serif" font-size="20" font-weight="600" fill="#222">RAMScope_File_Log_Close.vi</text>
<text x="275.0" y="883" text-anchor="middle" font-family="Yu Gothic, Noto Sans JP, sans-serif" font-size="16" fill="#555">File closed</text>
<rect x="65" y="1025" width="420" height="130" rx="24" fill="url(#flowPanel)" stroke="#3A3A3A" stroke-width="4" filter="url(#shadow)"/>
<circle cx="97" cy="1090" r="11" fill="#FFF0E1" stroke="#E06B00" stroke-width="4"/>
<circle cx="453" cy="1090" r="11" fill="#E8F2FC" stroke="#2B76C4" stroke-width="4"/>
<text x="275.0" y="1077" text-anchor="middle" font-family="Yu Gothic, Noto Sans JP, sans-serif" font-size="20" font-weight="600" fill="#222">RAMScope_Close.vi</text>
<text x="275.0" y="1113" text-anchor="middle" font-family="Yu Gothic, Noto Sans JP, sans-serif" font-size="16" fill="#555">Final error</text>
</svg>